<?xml version="1.0" encoding="utf-8"?>
<!-- Generator: Adobe Illustrator 21.0.2, SVG Export Plug-In . SVG Version: 6.00 Build 0)  -->
<svg version="1.1" id="GraphQL_Logo" xmlns="http://www.w3.org/2000/svg" xmlns:xlink="http://www.w3.org/1999/xlink" x="0px"
	 y="0px" viewBox="0 0 400 400" enable-background="new 0 0 400 400" xml:space="preserve">
<path fill="#E535AB" d="M313.4,303.9c-3.6-3.9-6.1-8.6-7.6-13.6l-80.5,46.5c3.6,3.8,6.4,8.3,8,13.4L313.4,303.9z"/>
<path fill="#E535AB" d="M233.2,350.2c-1.6-5.1-4.4-9.6-8-13.4c-6.4-6.6-15.3-10.8-25.2-10.8c-9.9,0-18.8,4.1-25.1,10.7
	c-3.8,4-6.7,8.9-8.3,14.3c-0.9,3.1-1.4,6.4-1.4,9.9c0,19.3,15.6,34.9,34.9,34.9s34.9-15.7,34.9-34.9
	C234.9,357.2,234.3,353.6,233.2,350.2z"/>
<path fill="#ffffff" d="M331.3,153.5l0,12.7l16,0l0-12.7C342,154.8,336.5,154.7,331.3,153.5z"/>
<rect x="331.3" y="183.3" fill="#E535AB" width="16" height="34.3"/>
<rect x="262.5" y="59.2" transform="matrix(0.4845 -0.8748 0.8748 0.4845 72.8399 275.9022)" fill="#E535AB" width="16" height="34"/>
<path fill="#ffffff" d="M317,92.7l-12.9-7.1l-7.8,14l11,6.1C309.4,100.8,312.7,96.3,317,92.7z"/>
<path fill="#E535AB" d="M369.6,102.1c-9.7-16.7-31-22.4-47.7-12.8c-1.8,1-3.4,2.2-4.9,3.4c-4.3,3.6-7.5,8-9.7,12.9
	c-4.2,9.8-3.9,21.4,1.8,31.3c5,8.7,13.2,14.4,22.2,16.5c5.2,1.2,10.7,1.3,16,0c3.2-0.8,6.4-2,9.5-3.7
	C373.5,140.1,379.2,118.8,369.6,102.1z"/>
<path fill="#E535AB" d="M222.8,65.6c-3.7,3.2-8.1,5.6-13,7.1l7.9,14.1l13.9-7.9l-8-14.1C223.4,65,223.1,65.3,222.8,65.6z"/>
<rect x="287.7" y="188.8" transform="matrix(0.8705 -0.4922 0.4922 0.8705 -64.2282 172.5284)" fill="#ffffff" width="16" height="39"/>
<rect x="260.8" y="141.3" transform="matrix(0.8704 -0.4923 0.4923 0.8704 -44.3214 153.1547)" fill="#E535AB" width="16" height="39"/>
<rect x="233.9" y="93.8" transform="matrix(0.8705 -0.4922 0.4922 0.8705 -24.4145 133.7674)" fill="#ffffff" width="16" height="39"/>
<path fill="#E535AB" d="M327.2,247.7l-7.2-12.8l-13.9,7.9l7.8,13.8C317.5,252.5,322.1,249.5,327.2,247.7z"/>
<circle fill="#ffffff" cx="339.4" cy="119.5" r="25.1"/>
<circle fill="none" cx="339.4" cy="280.5" r="25.1"/>
<path fill="#ffffff" d="M347.3,246.5l0-11.7l-16,0l0,11.7C336.5,245.3,342,245.2,347.3,246.5z"/>
<circle fill="none" cx="339.4" cy="280.5" r="25.1"/>
<path fill="#E535AB" d="M174.9,63.4c-3.8-4-6.8-8.9-8.4-14.3L86,95.5c3.9,4.1,6.7,9.1,8.2,14.4L174.9,63.4z"/>
<path fill="#E535AB" d="M52.5,153.5v93c5.5-1.3,11.2-1.3,16.6,0v-93.2C63.7,154.7,58,154.8,52.5,153.5z"/>
<path fill="#E535AB" d="M94.2,110c-1.5-5.3-4.3-10.3-8.2-14.4c-2.3-2.4-4.9-4.5-7.9-6.2c-16.7-9.6-38.1-3.9-47.7,12.8
	c-9.6,16.7-3.9,38.1,12.8,47.7c3,1.7,6.1,2.9,9.3,3.7c5.5,1.3,11.2,1.3,16.6-0.1c8.9-2.2,16.9-7.9,21.8-16.4
	C95.8,128.5,96.7,118.7,94.2,110z"/>
<path fill="#E535AB" d="M190.3,72.6c-5.5-1.6-10.4-4.5-14.4-8.3L70.5,246.9c5.3,1.5,10.3,4.3,14.4,8.3L190.3,72.6z"/>
<path fill="#E535AB" d="M86,304.5l80.5,46.5c1.6-5.5,4.5-10.4,8.3-14.3l-80.6-46.5C92.7,295.5,89.9,300.4,86,304.5z"/>
<path fill="#E535AB" d="M94.9,287.5h210.1c-0.9-4.5-1-9.3,0-13.9H95C95.9,278.2,95.9,282.9,94.9,287.5z"/>
<path fill="#E535AB" d="M95,273.5c-0.7-3.6-2-7.2-4-10.5c-1.7-2.9-3.8-5.5-6.1-7.8c-4.1-3.9-9.1-6.7-14.4-8.3
	c-0.5-0.1-0.9-0.3-1.4-0.4c-5.4-1.3-11.1-1.4-16.6,0c-3.2,0.8-6.2,2-9.2,3.7c-16.7,9.7-22.4,31-12.8,47.7s30.9,22.4,47.7,12.8
	c3-1.7,5.6-3.8,7.8-6.2c3.9-4.1,6.7-9.1,8.3-14.4c0.3-0.9,0.5-1.8,0.7-2.7C95.9,282.9,95.9,278.2,95,273.5z"/>
<path fill="#E535AB" d="M356.7,250.2c-3-1.7-6.2-3-9.4-3.7c-5.3-1.3-10.8-1.2-16,0c-1.4,0.3-2.8,0.7-4.1,1.2
	c-5,1.8-9.6,4.8-13.4,8.9c-1.8,1.9-3.4,4.1-4.8,6.4c-1.9,3.4-3.2,6.9-4,10.5c-0.9,4.6-0.9,9.4,0,13.9c0.2,0.9,0.4,1.9,0.7,2.8
	c1.5,5,4,9.7,7.6,13.6c2.4,2.6,5.2,4.9,8.4,6.8c16.7,9.6,38.1,3.9,47.7-12.8C379.2,281.2,373.5,259.9,356.7,250.2z M339.4,305.5
	c-13.9,0-25.1-11.2-25.1-25.1s11.2-25.1,25.1-25.1s25.1,11.2,25.1,25.1S353.2,305.5,339.4,305.5z"/>
<circle fill="#ffffff" cx="339.4" cy="280.5" r="25.1"/>
<path fill="#ffffff" d="M244.7,52.7L234,46.8c-1.2,5.4-3.7,10.3-7,14.4l9.9,5.5L244.7,52.7z"/>
<path fill="#E535AB" d="M200,4.2c-19.3,0-34.9,15.6-34.9,34.9c0,3.4,0.5,6.8,1.4,9.9c1.6,5.5,4.5,10.4,8.4,14.3c0.3,0.3,0.7,0.7,1,1
	c4,3.8,8.9,6.7,14.4,8.3c3.1,0.9,6.3,1.4,9.7,1.4c2.9,0,5.8-0.4,8.5-1.1c0.4-0.1,0.8-0.2,1.2-0.3c0,0,0,0,0,0
	c4.9-1.4,9.3-3.8,13-7.1c0.3-0.3,0.6-0.5,0.9-0.8c0.1-0.1,0.3-0.3,0.4-0.4c1-1,2-2,2.9-3.1c3.4-4.1,5.8-9,7-14.4
	c0.6-2.5,0.9-5.1,0.9-7.7C234.9,19.8,219.3,4.2,200,4.2z"/>
<circle fill="#E535AB" cx="199.9" cy="39.1" r="25.1"/>
<path fill="#ffffff" d="M199.9,14c-13.9,0-25.1,11.2-25.1,25.1c0,13.9,11.2,25.1,25.1,25.1S225,53,225,39.1
	C225,25.2,213.7,14,199.9,14z M200,46.5c-4.1,0-7.4-3.3-7.4-7.5c0-4.1,3.3-7.4,7.4-7.4s7.4,3.3,7.4,7.4
	C207.4,43.2,204.1,46.5,200,46.5z"/>
<circle fill="#E535AB" cx="200" cy="39.1" r="7.4"/>
<circle fill="#E535AB" cx="339.4" cy="119" r="7.4"/>
<circle fill="#E535AB" cx="339.4" cy="281.1" r="7.4"/>
</svg>
