<?xml version="1.0" encoding="utf-8"?>
<!-- Generator: Adobe Illustrator 21.0.2, SVG Export Plug-In . SVG Version: 6.00 Build 0)  -->
<svg version="1.1" id="GraphQL_Logo" xmlns="http://www.w3.org/2000/svg" xmlns:xlink="http://www.w3.org/1999/xlink" x="0px"
	 y="0px" viewBox="0 0 1159 270" style="enable-background:new 0 0 1159 270;" xml:space="preserve">
<style type="text/css">
	.st0{fill:#E535AB;}
	.st1{fill:#484A4A;}
	.st2{fill:none;}
	.st3{enable-background:new    ;}
	.st4{font-family:'Futura-Bold';}
	.st5{font-size:107px;}
</style>
<title>faker-logo-text</title>
<path class="st0" d="M203.6,201c-2.2-2.4-3.8-5.4-4.7-8.5l-50.3,29c2.3,2.4,4,5.2,5,8.4L203.6,201z"/>
<path class="st0" d="M153.5,229.9c-3.6-11.5-15.8-17.9-27.3-14.3s-17.9,15.8-14.3,27.3c3.6,11.5,15.8,17.9,27.3,14.3
	c9-2.8,15.2-11.2,15.3-20.6C154.5,234.3,154.2,232.1,153.5,229.9z"/>
<path class="st1" d="M214.7,107.2v7.9h10v-7.9C221.4,108,218,108,214.7,107.2z"/>
<rect x="214.7" y="125.8" class="st0" width="10" height="21.4"/>
<rect x="171.8" y="48.3" transform="matrix(0.4845 -0.8748 0.8748 0.4845 39.5952 185)" class="st0" width="10" height="21.2"/>
<path class="st1" d="M205.8,69.3l-8-4.4l-4.8,8.7l6.8,3.8C201.1,74.2,203.2,71.4,205.8,69.3z"/>
<path class="st0" d="M238.6,75.1c-6-10.4-19.3-14-29.8-8c-1.1,0.6-2.1,1.3-3.1,2.2c-9.2,7.7-10.5,21.4-2.8,30.7s21.4,10.5,30.7,2.8
	C241.8,95.9,243.8,84.3,238.6,75.1z"/>
<path class="st0" d="M147,52.3c-2.4,2-5.1,3.5-8.1,4.4l5,8.8l8.7-4.9l-5-8.8L147,52.3z"/>
<rect x="187.5" y="129.2" transform="matrix(0.8704 -0.4923 0.4923 0.8704 -44.6558 113.0653)" class="st1" width="10" height="24.3"/>
<rect x="170.7" y="99.5" transform="matrix(0.8704 -0.4923 0.4923 0.8704 -32.2292 100.9679)" class="st0" width="10" height="24.3"/>
<rect x="153.9" y="69.9" transform="matrix(0.8704 -0.4923 0.4923 0.8704 -19.8049 88.8692)" class="st1" width="10" height="24.3"/>
<path class="st0" d="M212.1,166l-4.5-8l-8.7,4.9l4.9,8.6C206.1,169,208.9,167.1,212.1,166z"/>
<circle class="st1" cx="219.7" cy="86" r="15.6"/>
<circle class="st2" cx="219.7" cy="186.4" r="15.6"/>
<path class="st1" d="M224.7,165.2v-7.3h-10v7.3C218,164.4,221.4,164.4,224.7,165.2z"/>
<circle class="st2" cx="219.7" cy="186.4" r="15.6"/>
<path class="st0" d="M117.1,50.9c-2.4-2.5-4.2-5.6-5.2-9L61.5,71c2.4,2.5,4.2,5.6,5.1,9L117.1,50.9z"/>
<path class="st0" d="M40.7,107.2v58.1c3.4-0.8,7-0.8,10.4,0v-58.1C47.7,108,44.1,108,40.7,107.2z"/>
<path class="st0" d="M66.7,80c-3.3-11.5-15.4-18.2-26.9-14.9C28.3,68.4,21.6,80.5,24.9,92c3.3,11.5,15.4,18.2,26.9,14.9
	c5.4-1.6,10-5.2,12.8-10C67.6,91.8,68.3,85.7,66.7,80z"/>
<path class="st0" d="M126.7,56.7c-3.4-1-6.5-2.7-9-5.2l-65.8,114c3.4,1,6.5,2.7,9,5.2L126.7,56.7z"/>
<path class="st0" d="M61.6,201.4l50.3,29c1-3.4,2.8-6.5,5.2-9l-50.3-29C65.8,195.8,64,198.9,61.6,201.4z"/>
<path class="st0" d="M67.2,190.8h131.2c-0.6-2.9-0.6-5.8,0-8.7H67.2C67.8,185,67.8,187.9,67.2,190.8z"/>
<path class="st0" d="M67.2,182.1c-1.6-8-7.5-14.3-15.3-16.6l-0.8-0.2c-11.7-2.9-23.5,4.2-26.4,15.9c-2.9,11.7,4.2,23.5,15.9,26.4
	c11.4,2.8,22.9-3.9,26.2-15.1c0.2-0.6,0.3-1.1,0.4-1.7C67.8,187.9,67.8,185,67.2,182.1z"/>
<path class="st0" d="M230.6,167.5c-10.4-6-23.7-2.4-29.8,8c-2.7,4.6-3.5,10.1-2.5,15.3c0.1,0.6,0.3,1.2,0.4,1.8
	c3.4,11.6,15.5,18.2,27,14.8s18.2-15.5,14.8-27C239,174.9,235.4,170.3,230.6,167.5L230.6,167.5z M219.7,202.1
	c-8.6,0-15.7-7-15.7-15.6s7-15.7,15.6-15.7c8.6,0,15.7,7,15.7,15.6c0,0,0,0,0,0C235.4,195.1,228.4,202.1,219.7,202.1z"/>
<circle class="st1" cx="219.7" cy="186.4" r="15.6"/>
<path class="st1" d="M160.6,44.3l-6.6-3.7c-0.7,3.3-2.2,6.4-4.4,9l6.2,3.4L160.6,44.3z"/>
<path class="st0" d="M132.8,14c-12,0-21.8,9.7-21.8,21.8c0,5.7,2.2,11.1,6.1,15.1l0.6,0.6c5.4,5.2,13.1,7.2,20.4,5.3l0.8-0.2l0,0
	c3-0.9,5.8-2.4,8.1-4.4l0.6-0.5l0.3-0.2c0.6-0.6,1.2-1.3,1.8-2c7.6-9.3,6.3-23-3.1-30.7C142.7,15.7,137.8,14,132.8,14z"/>
<circle class="st0" cx="132.7" cy="35.8" r="15.7"/>
<path class="st1" d="M132.7,20.1c-8.6,0-15.6,7-15.6,15.7c0,8.6,7,15.6,15.7,15.6c8.6,0,15.6-7,15.6-15.6
	C148.3,27.1,141.3,20.1,132.7,20.1C132.7,20.1,132.7,20.1,132.7,20.1z M132.8,40.4c-2.6,0-4.6-2.1-4.6-4.7c0-2.6,2.1-4.6,4.7-4.6
	c2.6,0,4.6,2.1,4.6,4.7c0,0,0,0,0,0C137.4,38.3,135.3,40.4,132.8,40.4C132.8,40.4,132.8,40.4,132.8,40.4L132.8,40.4z"/>
<circle class="st0" cx="132.8" cy="35.8" r="4.7"/>
<circle class="st0" cx="219.7" cy="85.6" r="4.6"/>
<circle class="st0" cx="219.7" cy="186.8" r="4.6"/>
<g class="st3">
	<path class="st0" d="M308.1,130.5h41.2c0,4.3-0.2,8.2-0.5,11.7c-0.4,3.5-1.1,6.7-2.1,9.7c-1.5,4.2-3.5,7.9-6,11.2
		c-2.5,3.2-5.5,6-9,8.1c-3.4,2.2-7.2,3.8-11.3,5c-4.1,1.1-8.4,1.7-12.9,1.7c-6.2,0-11.9-1-17-3.1c-5.1-2.1-9.5-5-13.2-8.7
		c-3.7-3.7-6.5-8.2-8.6-13.5c-2-5.2-3.1-11-3.1-17.4c0-6.3,1-12,3-17.3s4.9-9.7,8.6-13.4c3.7-3.7,8.2-6.6,13.4-8.7
		c5.2-2.1,11.1-3.1,17.5-3.1c8.3,0,15.6,1.8,21.9,5.5c6.3,3.6,11.3,9.3,14.9,16.9l-19.7,8.2c-1.8-4.4-4.2-7.6-7.1-9.5
		c-2.9-1.9-6.3-2.9-10-2.9c-3.1,0-5.9,0.6-8.5,1.8c-2.5,1.2-4.7,2.9-6.5,5c-1.8,2.2-3.2,4.8-4.2,7.9c-1,3.1-1.5,6.5-1.5,10.3
		c0,3.4,0.4,6.6,1.3,9.5c0.9,2.9,2.2,5.5,4,7.6c1.8,2.1,4,3.8,6.6,5c2.6,1.2,5.6,1.8,9.1,1.8c2,0,4-0.2,5.9-0.7
		c1.9-0.5,3.6-1.2,5.1-2.2c1.5-1,2.8-2.4,3.8-4c1-1.6,1.7-3.6,2-6h-17.1V130.5z"/>
</g>
<g class="st3">
	<path class="st0" d="M360.6,120.8h19.2v9c2-3.3,4.6-5.8,7.5-7.5c3-1.7,6.4-2.6,10.4-2.6c0.5,0,1,0,1.6,0c0.6,0,1.3,0.1,2.1,0.2
		v18.5c-2.5-1.3-5.3-1.9-8.3-1.9c-4.4,0-7.8,1.3-10,4c-2.2,2.7-3.3,6.6-3.3,11.7v23.5h-19.2V120.8z"/>
</g>
<g class="st3">
	<path class="st0" d="M452.5,120.8h19.3v54.9h-19.3v-6.1c-4.1,5.2-9.6,7.8-16.6,7.8c-4,0-7.6-0.7-10.9-2.2c-3.3-1.5-6.2-3.5-8.7-6.2
		c-2.5-2.6-4.4-5.7-5.8-9.3c-1.4-3.6-2.1-7.5-2.1-11.7c0-3.9,0.7-7.7,2-11.2c1.3-3.5,3.2-6.6,5.6-9.3c2.4-2.6,5.3-4.7,8.6-6.3
		c3.3-1.5,7-2.3,11-2.3c6.8,0,12.4,2.4,16.8,7.2V120.8z M428.4,148.1c0,1.8,0.3,3.4,1,5c0.6,1.5,1.5,2.9,2.6,4
		c1.1,1.1,2.4,2,3.9,2.7c1.5,0.6,3.2,1,4.9,1c1.7,0,3.3-0.3,4.8-1c1.5-0.6,2.8-1.5,3.9-2.7c1.1-1.1,2-2.5,2.6-4c0.7-1.5,1-3.1,1-4.8
		c0-1.7-0.3-3.3-1-4.9c-0.7-1.5-1.6-2.9-2.6-4c-1.1-1.1-2.4-2-3.9-2.7c-1.5-0.6-3.1-1-4.8-1c-1.8,0-3.4,0.3-4.9,1
		c-1.5,0.6-2.8,1.5-3.9,2.7c-1.1,1.1-2,2.4-2.6,3.9C428.7,144.8,428.4,146.3,428.4,148.1z"/>
	<path class="st0" d="M504,203.1h-19.2v-82.3H504v6.1c4.1-5.2,9.7-7.8,16.7-7.8c3.9,0,7.5,0.8,10.9,2.3c3.4,1.5,6.3,3.6,8.7,6.3
		c2.5,2.6,4.4,5.7,5.8,9.3c1.4,3.6,2.1,7.4,2.1,11.4s-0.7,7.8-2.1,11.3c-1.4,3.5-3.3,6.6-5.7,9.2c-2.4,2.6-5.3,4.7-8.6,6.2
		c-3.3,1.5-6.9,2.2-10.8,2.2c-6.8,0-12.4-2.4-16.9-7.1V203.1z M528.2,148.4c0-1.7-0.3-3.3-0.9-4.9c-0.6-1.5-1.5-2.9-2.6-4
		c-1.1-1.1-2.5-2-4-2.7c-1.5-0.7-3.2-1-4.9-1c-1.7,0-3.3,0.3-4.8,1s-2.8,1.5-3.9,2.7c-1.1,1.1-2,2.5-2.6,4c-0.7,1.5-1,3.2-1,4.9
		c0,1.7,0.3,3.3,1,4.8c0.6,1.5,1.5,2.8,2.6,3.9c1.1,1.1,2.5,2,4,2.7c1.5,0.7,3.1,1,4.8,1c1.7,0,3.3-0.3,4.8-1
		c1.5-0.6,2.8-1.5,3.9-2.7c1.1-1.1,2-2.5,2.6-4C527.8,151.6,528.2,150,528.2,148.4z"/>
	<path class="st0" d="M559.1,86.9h19.2v40.9c2.6-3.2,5.3-5.4,7.9-6.5c2.7-1.1,5.8-1.7,9.4-1.7c6.8,0,12,1.9,15.5,5.7
		c3.5,3.8,5.2,9,5.2,15.5v34.9h-19.2v-27.7c0-2.8-0.2-5-0.6-6.7c-0.4-1.7-1.1-3-2.1-4c-1.7-1.5-3.7-2.2-6.1-2.2
		c-3.2,0-5.7,1-7.5,2.9c-1.7,2-2.6,4.8-2.6,8.4v29.3h-19.2V86.9z"/>
	<path class="st0" d="M627.6,135.3c0-6,1.1-11.6,3.3-16.7c2.2-5.2,5.2-9.7,9.1-13.5c3.9-3.9,8.5-6.9,13.9-9
		c5.4-2.2,11.4-3.3,17.8-3.3c6.4,0,12.4,1.1,17.8,3.3c5.4,2.2,10.1,5.2,14,9c3.9,3.9,7,8.4,9.2,13.5c2.2,5.2,3.3,10.8,3.3,16.7
		c0,5.6-0.9,10.7-2.7,15.5c-1.8,4.8-4.4,9-7.8,12.7l13.6,14.3l-19.1,3l-7.3-7.6c-3.1,1.4-6.4,2.5-9.9,3.4c-3.5,0.8-7.2,1.2-11.1,1.2
		c-6.5,0-12.4-1.1-17.8-3.3s-10-5.2-13.9-9c-3.9-3.9-6.9-8.4-9.1-13.5C628.7,146.9,627.6,141.3,627.6,135.3z M649.4,135.3
		c0,3.2,0.6,6.2,1.8,8.9c1.2,2.7,2.8,5.1,4.9,7.1c2,2,4.4,3.5,7.2,4.7c2.7,1.1,5.6,1.7,8.6,1.7c1.8,0,3.7-0.2,5.5-0.6l-11.9-12.6
		l19.6-2.5l5.5,5.9c2.5-3.6,3.8-7.7,3.8-12.4c0-3.2-0.6-6.2-1.8-8.9c-1.2-2.7-2.8-5.1-4.9-7.1c-2.1-2-4.5-3.5-7.2-4.7
		c-2.7-1.1-5.6-1.7-8.6-1.7c-3,0-5.9,0.6-8.6,1.7c-2.7,1.1-5.1,2.7-7.2,4.7c-2,2-3.7,4.4-4.9,7.1C650,129.2,649.4,132.1,649.4,135.3
		z"/>
	<path class="st0" d="M750,95v62.9h24.9v17.8h-45.7V95H750z"/>
</g>
<text transform="matrix(0.99 0 0 1 777.2139 175.6602)" class="st1 st4 st5"> </text>
<g class="st3">
	<path class="st1" d="M867.4,112.7h-25v13.5h22.8V144h-22.8v31.7h-20.8V95h45.8V112.7z"/>
</g>
<g class="st3">
	<path class="st1" d="M919.2,120.8h19.3v54.9h-19.3v-6.1c-4.1,5.2-9.6,7.8-16.6,7.8c-4,0-7.6-0.7-10.9-2.2c-3.3-1.5-6.2-3.5-8.7-6.2
		c-2.5-2.6-4.4-5.7-5.8-9.3c-1.4-3.6-2.1-7.5-2.1-11.7c0-3.9,0.7-7.7,2-11.2c1.3-3.5,3.2-6.6,5.6-9.3c2.4-2.6,5.3-4.7,8.6-6.3
		c3.3-1.5,7-2.3,11-2.3c6.8,0,12.4,2.4,16.8,7.2V120.8z M895,148.1c0,1.8,0.3,3.4,1,5c0.6,1.5,1.5,2.9,2.6,4c1.1,1.1,2.4,2,3.9,2.7
		c1.5,0.6,3.2,1,4.9,1c1.7,0,3.3-0.3,4.8-1c1.5-0.6,2.8-1.5,3.9-2.7c1.1-1.1,2-2.5,2.6-4c0.7-1.5,1-3.1,1-4.8c0-1.7-0.3-3.3-1-4.9
		c-0.7-1.5-1.6-2.9-2.6-4c-1.1-1.1-2.4-2-3.9-2.7c-1.5-0.6-3.1-1-4.8-1c-1.8,0-3.4,0.3-4.9,1c-1.5,0.6-2.8,1.5-3.9,2.7
		c-1.1,1.1-2,2.4-2.6,3.9C895.3,144.8,895,146.3,895,148.1z"/>
</g>
<g class="st3">
	<path class="st1" d="M970.6,86.9v53.7l20.1-19.8h26.3l-27.2,25.4l28.8,29.5h-26.9l-21.1-22.4v22.4h-19.2V86.9H970.6z"/>
</g>
<g class="st3">
	<path class="st1" d="M1039.4,151.5c0,8.3,3.9,12.5,11.7,12.5c4.2,0,7.3-1.7,9.4-5.1h18.5c-3.7,12.6-13.1,18.8-28.1,18.8
		c-4.6,0-8.8-0.7-12.6-2.1c-3.8-1.4-7.1-3.4-9.8-5.9c-2.7-2.6-4.8-5.6-6.3-9.2c-1.5-3.6-2.2-7.6-2.2-12c0-4.6,0.7-8.7,2.1-12.4
		c1.4-3.7,3.4-6.8,6-9.4c2.6-2.6,5.8-4.5,9.5-5.9c3.7-1.4,7.9-2.1,12.6-2.1c4.6,0,8.7,0.7,12.4,2.1c3.7,1.4,6.8,3.4,9.3,6
		c2.5,2.6,4.5,5.9,5.8,9.7c1.3,3.8,2,8.1,2,12.9v2H1039.4z M1061.8,140.2c-0.6-2.7-1.9-4.9-3.9-6.5c-2-1.6-4.4-2.5-7.2-2.5
		c-3,0-5.4,0.8-7.3,2.4c-1.9,1.6-3.1,3.8-3.5,6.6H1061.8z"/>
	<path class="st1" d="M1090.7,120.8h19.2v9c2-3.3,4.6-5.8,7.5-7.5c3-1.7,6.4-2.6,10.4-2.6c0.5,0,1,0,1.6,0c0.6,0,1.3,0.1,2.1,0.2
		v18.5c-2.5-1.3-5.3-1.9-8.3-1.9c-4.4,0-7.8,1.3-10,4c-2.2,2.7-3.3,6.6-3.3,11.7v23.5h-19.2V120.8z"/>
</g>
</svg>
